<svg t="1522339427304" class="icon" style="" viewBox="0 0 1024 1024" version="1.1" xmlns="http://www.w3.org/2000/svg" p-id="12668" xmlns:xlink="http://www.w3.org/1999/xlink" width="22" height="22"><defs><style type="text/css"></style></defs><path d="M358.4 448 153.6 448c-49.5 0-89.6-40.1-89.6-89.6L64 153.6c0-49.5 40.1-89.6 89.6-89.6l204.9 0c49.5 0 89.6 40.1 89.6 89.6l0 204.9C448 407.9 407.9 448 358.4 448z" p-id="12669" fill="#1296db"></path><path d="M870.4 448 665.6 448c-49.5 0-89.6-40.1-89.6-89.6L576 153.6c0-49.5 40.1-89.6 89.6-89.6l204.9 0c49.5 0 89.6 40.1 89.6 89.6l0 204.9C960 407.9 919.9 448 870.4 448z" p-id="12670" fill="#1296db"></path><path d="M358.4 960 153.6 960c-49.5 0-89.6-40.1-89.6-89.6L64 665.6c0-49.5 40.1-89.6 89.6-89.6l204.9 0c49.5 0 89.6 40.1 89.6 89.6l0 204.9C448 919.9 407.9 960 358.4 960z" p-id="12671" fill="#1296db"></path><path d="M870.4 960 665.6 960c-49.5 0-89.6-40.1-89.6-89.6L576 665.6c0-49.5 40.1-89.6 89.6-89.6l204.9 0c49.5 0 89.6 40.1 89.6 89.6l0 204.9C960 919.9 919.9 960 870.4 960z" p-id="12672" fill="#1296db"></path></svg>
