<svg t="1522506173977" class="icon" style="" viewBox="0 0 1024 1024" version="1.1" xmlns="http://www.w3.org/2000/svg" p-id="14310" xmlns:xlink="http://www.w3.org/1999/xlink" width="22" height="22"><defs><style type="text/css"></style></defs><path d="M279.3 392.7h464c13.2 0 24-10.8 24-24s-10.8-24-24-24h-464c-13.2 0-24 10.8-24 24s10.8 24 24 24zM279.3 560.7h464c13.2 0 24-10.8 24-24s-10.8-24-24-24h-464c-13.2 0-24 10.8-24 24s10.8 24 24 24zM487.3 680.7h-208c-13.2 0-24 10.8-24 24s10.8 24 24 24h208c13.2 0 24-10.8 24-24s-10.8-24-24-24zM751.3 680.7h-144c-13.2 0-24 10.8-24 24s10.8 24 24 24h144c13.2 0 24-10.8 24-24s-10.8-24-24-24z" p-id="14311" fill="#707070"></path><path d="M848.7 127.3H699.9c-10.7-41.3-48-72-92.6-72h-192c-44.6 0-81.9 30.7-92.6 72H175.4c-39.8 0-72 32.2-72 72v697.3c0 39.8 32.2 72 72 72h673.3c39.8 0 72-32.2 72-72V199.3c0-39.7-32.3-72-72-72z m-433.4-24h192c26.4 0 48 21.6 48 48s-21.6 48-48 48h-192c-26.4 0-48-21.6-48-48s21.6-48 48-48z m457.4 793.4c0 13.2-10.8 24-24 24H175.3c-13.2 0-24-10.8-24-24V199.3c0-13.2 10.8-24 24-24h147.3c10.7 41.3 48 72 92.6 72h192c44.6 0 81.9-30.7 92.6-72h148.8c13.2 0 24 10.8 24 24v697.4z" p-id="14312" fill="#707070"></path></svg>
