<svg t="1522506151859" class="icon" style="" viewBox="0 0 1024 1024" version="1.1" xmlns="http://www.w3.org/2000/svg" p-id="14036" xmlns:xlink="http://www.w3.org/1999/xlink" width="22" height="22"><defs><style type="text/css"></style></defs><path d="M416 151.2h192c26.4 0 48-21.6 48-48s-21.6-48-48-48H416c-26.4 0-48 21.6-48 48s21.6 48 48 48z" p-id="14037" fill="#1296db"></path><path d="M848 103.3H728c0 52.8-43.2 96-96 96H392c-52.8 0-96-43.2-96-96H176c-39.8 0-72 32.2-72 72v721.5c0 39.8 32.2 72 72 72h672c39.8 0 72-32.2 72-72V175.3c0-39.8-32.3-72-72-72zM280 343.2h464c13.2 0 24 10.8 24 24s-10.8 24-24 24H280c-13.2 0-24-10.8-24-24s10.8-24 24-24z m0 168h464c13.2 0 24 10.8 24 24s-10.8 24-24 24H280c-13.2 0-24-10.8-24-24s10.8-24 24-24z m232 192c0 13.2-10.8 24-24 24H280c-13.2 0-24-10.8-24-24s10.8-24 24-24h208c13.2 0 24 10.8 24 24z m264 0c0 13.2-10.8 24-24 24H608c-13.2 0-24-10.8-24-24s10.8-24 24-24h144c13.2 0 24 10.8 24 24z" p-id="14038" fill="#1296db"></path></svg>
